<svg xmlns="http://www.w3.org/2000/svg" width="267" height="62"><path fill="transparent" d="M0 0h267v62H0z"/><path fill="#E31E24" d="M64.006 13.679l2.193.663c-.147.615-.379 1.129-.696 1.541a3.015 3.015 0 01-1.179.934c-.47.209-1.067.314-1.793.314-.88 0-1.599-.127-2.158-.383-.558-.256-1.039-.706-1.444-1.35-.405-.644-.607-1.468-.607-2.473 0-1.34.356-2.369 1.069-3.089.713-.72 1.721-1.08 3.024-1.08 1.021 0 1.823.206 2.406.619.584.412 1.017 1.046 1.301 1.9l-2.209.492c-.078-.247-.159-.428-.243-.542a1.468 1.468 0 00-.514-.442 1.479 1.479 0 00-.68-.154c-.566 0-1.001.228-1.304.685-.228.338-.342.87-.342 1.594 0 .897.136 1.513.409 1.846.271.333.655.499 1.149.499.479 0 .84-.134 1.086-.403.244-.268.422-.659.532-1.171zm3.801-4.783h6.707v1.729h-4.199v1.288h3.895v1.652h-3.895v1.597h4.32v1.834h-6.828v-8.1zm8.004 0h7.607v1.999h-2.552v6.1h-2.503v-6.1h-2.552V8.896zm11.646 3.12h1.336c1.227 0 2.137.217 2.729.649.593.433.89 1.105.89 2.02 0 .748-.272 1.319-.815 1.715s-1.323.594-2.34.594H84.96V8.896h2.497v3.12zm0 3.237h1.282c.784 0 1.176-.283 1.176-.851 0-.498-.392-.746-1.176-.746h-1.282v1.597zm10.39-6.357h3.291l1.27 4.928 1.26-4.928h3.289v8.099h-2.049v-6.176l-1.579 6.176h-1.855l-1.576-6.176v6.176h-2.049V8.896h-.002zm16.082 6.762h-2.841l-.395 1.336h-2.555l3.044-8.099h2.73l3.043 8.099h-2.62l-.406-1.336zm-.519-1.753l-.894-2.911-.885 2.911h1.779zm11.152-3.021h-3.917v6.11h-2.497V8.896h6.414v1.988zm6.508 4.774h-2.84l-.396 1.336h-2.555l3.044-8.099h2.73l3.042 8.099h-2.621l-.404-1.336zm-.518-1.753l-.895-2.911-.884 2.911h1.779zm9.814-1.314c.973.261 1.459.872 1.459 1.834 0 .792-.306 1.44-.914 1.947-.611.506-1.472.759-2.582.759-1.902 0-3.082-.797-3.541-2.392l2.362-.177c.134.564.511.845 1.134.845.346 0 .606-.086.784-.259.181-.173.271-.415.271-.724a.891.891 0 00-.338-.727c-.226-.186-.53-.279-.922-.279h-.681V11.97h.535c.322 0 .572-.083.754-.251.185-.167.275-.4.275-.699 0-.438-.275-.658-.824-.658-.565 0-.896.252-.988.757l-2.237-.26c.364-1.403 1.455-2.105 3.271-2.105 1.006 0 1.793.195 2.363.586.572.39.857.915.857 1.574 0 .798-.343 1.357-1.038 1.677zm10.857-3.695v8.099h-2.354v-4.448l-3.029 4.448h-2.36V8.896h2.356v4.48l3.047-4.48h2.34zm2.084 0h2.502v2.833h2.733V8.896h2.515v8.099h-2.515v-3.276h-2.733v3.276h-2.502V8.896zm9.495 4.054c0-1.322.367-2.352 1.104-3.088.738-.737 1.764-1.105 3.078-1.105 1.348 0 2.387.362 3.115 1.086.729.724 1.094 1.737 1.094 3.041 0 .947-.158 1.723-.478 2.329s-.778 1.077-1.383 1.414c-.603.337-1.353.505-2.25.505-.914 0-1.67-.145-2.269-.436-.6-.291-1.084-.751-1.455-1.381-.372-.63-.556-1.419-.556-2.365zm2.503.011c0 .817.151 1.405.454 1.762.306.357.72.536 1.24.536.539 0 .955-.175 1.25-.525s.44-.978.44-1.884c0-.762-.151-1.32-.461-1.671-.307-.352-.725-.528-1.252-.528-.504 0-.91.179-1.215.536-.305.358-.456.949-.456 1.774zm7.638-4.065h4.685c.781 0 1.381.193 1.799.58.419.387.628.866.628 1.436 0 .479-.148.89-.447 1.232-.199.229-.49.409-.873.542.582.141 1.01.381 1.283.722.274.34.412.769.412 1.284 0 .419-.099.797-.291 1.132a2.185 2.185 0 01-.804.796c-.209.121-.526.209-.948.265-.564.074-.938.111-1.123.111h-4.318v-8.1h-.003zm2.525 3.176h1.091c.389 0 .662-.067.813-.202.154-.134.23-.329.23-.583 0-.236-.076-.42-.23-.553-.15-.133-.418-.199-.797-.199h-1.105l-.002 1.537zm0 3.181h1.275c.432 0 .735-.076.911-.229a.767.767 0 00.267-.616.711.711 0 00-.264-.577c-.175-.146-.48-.219-.919-.219h-1.271v1.641zm11.701-3.762h1.726l-1.529 2.553 1.529 2.558h-1.726l-1.762-2.555 1.762-2.556zm2.863 0h1.729l-1.531 2.556 1.531 2.555h-1.729l-1.759-2.558 1.759-2.553zm2.469-2.595h2.72l1.116 3.336 1.108-3.336h2.546l-2.658 6.253c-.217.505-.408.881-.567 1.129-.162.249-.404.453-.722.613-.317.16-.756.24-1.313.24-.295 0-.799-.042-1.518-.126v-1.674c.424.043.732.065.928.065.576 0 .928-.215 1.053-.646l-2.693-5.854zm20.826 9.86h-2.019v-1.762h-5.17v1.762h-2.012v-3.629h.834c.469-1.308.701-2.783.701-4.425V8.896h6.789v6.231h.875l.002 3.629zm-3.375-3.629v-4.243h-2.013v.105c0 1.119-.188 2.499-.569 4.138h2.582zm4.441-2.177c0-1.322.369-2.352 1.104-3.088.735-.737 1.762-1.105 3.076-1.105 1.348 0 2.387.362 3.114 1.086.73.724 1.097 1.737 1.097 3.041 0 .947-.16 1.723-.479 2.329-.32.606-.779 1.077-1.381 1.414s-1.352.505-2.25.505c-.914 0-1.672-.145-2.27-.436s-1.084-.751-1.455-1.381c-.372-.63-.556-1.419-.556-2.365zm2.502.011c0 .817.151 1.405.457 1.762.303.357.717.536 1.239.536.537 0 .953-.175 1.248-.525s.44-.978.44-1.884c0-.762-.151-1.32-.461-1.671-.307-.352-.725-.528-1.252-.528-.504 0-.907.179-1.215.536-.303.358-.456.949-.456 1.774zm7.606-4.065h3.291l1.271 4.928 1.262-4.928h3.287v8.099h-2.049v-6.176l-1.578 6.176h-1.855l-1.578-6.176v6.176h-2.049l-.002-8.099zm16.084 6.762h-2.842l-.396 1.336h-2.555l3.043-8.099h2.73l3.043 8.099h-2.621l-.402-1.336zm-.521-1.753l-.895-2.911-.885 2.911h1.78zm7.868.139l-1.759 2.558h-1.729l1.531-2.555-1.531-2.556h1.729l1.759 2.553zm2.866.003l-1.762 2.555h-1.724l1.529-2.558-1.529-2.553h1.724l1.762 2.556zM26.518 6.266C11.913 6.266 0 18.178 0 32.782c0 14.603 11.913 26.515 26.518 26.515 14.604 0 26.516-11.912 26.516-26.515 0-14.604-11.913-26.516-26.516-26.516zm15.184 38.175c-1.251 1.719-2.673 2.902-4.282 3.533-1.596.635-3.879.946-6.839.946H13.708V15.852h26.729v6H20.926v5.614h9.656c2.673 0 4.878.327 6.632.977 1.756.648 3.256 1.855 4.5 3.614 1.244 1.754 1.867 3.813 1.867 6.168 0 2.42-.624 4.491-1.879 6.216z"/><path fill="#E31E24" d="M34.301 34.6c-1.142-.736-3.077-1.107-5.803-1.129h-7.572v9.455h7.023c.189 0 .369 0 .549-.006 1.956-.013 3.347-.121 4.178-.318.916-.225 1.708-.721 2.38-1.5.674-.783 1.014-1.742 1.015-2.877 0-1.659-.587-2.866-1.77-3.625zm41.061 7.558c-1.056 1.273-2.381 1.914-3.97 1.914h-.198c-1.579-.053-2.917-.756-4.022-2.092-1.153-1.379-1.734-3.533-1.734-6.438 0-2.539.551-4.452 1.656-5.743 1.096-1.278 2.461-1.92 4.101-1.94h.073c1.606 0 2.951.66 4.042 1.972 1.09 1.317 1.641 3.331 1.641 6.053-.001 2.902-.535 5.003-1.589 6.274m5.208-16.182c-2.227-2.612-6.001-3.816-9.376-3.662-2.717.121-5.175 1.123-6.345 2.982v-2.264h-6.393v35.782h6.847v-11.88c1.529 1.637 3.651 2.492 5.89 2.659 3.396.251 7.071-1.079 9.356-3.682 2.114-2.394 3.167-5.757 3.167-10.079 0-4.211-1.099-7.455-3.146-9.856zm9.68-2.943h6.583V39.3l10.537-16.267h6.729v25.889h-6.587v-16.55l-10.679 16.55H90.25zm54.718 7.656l-6.76 1.215c-.219-1.348-.74-2.366-1.545-3.045-.812-.686-1.847-1.026-3.136-1.026-1.71 0-3.067.593-4.084 1.767-1.014 1.181-1.521 3.154-1.521 5.917 0 3.067.514 5.239 1.547 6.508 1.031 1.268 2.417 1.898 4.156 1.898 1.303 0 2.364-.367 3.195-1.107.832-.74 1.412-2.016 1.757-3.813l6.737 1.142c-.707 3.09-2.053 5.432-4.032 7.002-1.979 1.58-4.64 2.365-7.977 2.365-3.785 0-6.807-1.191-9.054-3.58-2.257-2.391-3.377-5.703-3.377-9.932 0-4.27 1.129-7.601 3.386-9.977 2.265-2.393 5.319-3.583 9.172-3.583 3.155 0 5.659.682 7.526 2.037 1.855 1.358 3.194 3.432 4.01 6.212m3.818-7.656h23.43v5.532h-8.289v20.357h-6.852V28.565h-8.289zm44.838 18.847c-1.207 1.358-2.707 2.045-4.494 2.045h-.017c-1.776-.003-3.28-.688-4.493-2.045-1.229-1.37-1.834-3.331-1.834-5.903 0-2.568.604-4.538 1.834-5.905 1.213-1.36 2.717-2.043 4.493-2.043h.017c1.787 0 3.287.679 4.494 2.043 1.213 1.368 1.824 3.323 1.824 5.853 0 2.602-.611 4.585-1.824 5.955m5.11-15.618c-2.502-2.546-5.713-3.822-9.621-3.822h-.008c-2.541 0-4.836.564-6.895 1.691-2.055 1.115-3.645 2.742-4.771 4.867-1.11 2.133-1.684 4.337-1.684 6.607 0 2.979.572 5.504 1.684 7.576 1.127 2.073 2.767 3.646 4.922 4.721a14.975 14.975 0 006.752 1.607h.039c3.839 0 7.021-1.285 9.55-3.863 2.521-2.582 3.784-5.826 3.784-9.736 0-3.889-1.245-7.105-3.752-9.648zm11.425-3.229h22.95v25.889h-6.823V28.59h-9.338v11.629c0 2.965-.343 5.037-1.027 6.234-.685 1.193-1.438 1.973-2.272 2.35-.822.373-2.158.563-3.992.563-1.092 0-2.537-.147-4.324-.444v-5.038c.158 0 .535.011 1.148.041a25 25 0 001.658.072c.924 0 1.5-.297 1.707-.915.215-.611.313-2.303.313-5.084V23.033zm48.801 20.574c-.56.649-1.838.978-3.838.978h-6.392v-6.587h4.472c.377 0 .729.007 1.067.016 1.902.063 3.265.297 4.08.692.969.474 1.459 1.337 1.459 2.587.003.893-.281 1.666-.848 2.314m6.478-6.718c-.959-1.291-2.158-2.129-3.605-2.517-1.445-.394-3.523-.585-6.217-.585h-6.883V23.033h-6.851v25.889h14.709c3.427 0 6-.629 7.718-1.883 1.711-1.26 2.567-3.146 2.567-5.643 0-1.712-.48-3.216-1.438-4.507z"/></svg>